####
#
# OBJ File Generated by Meshlab
#
####
# Object VG19_9_clip1leaf.obj
#
# Vertices: 61
# Faces: 87
#
####
mtllib ./VG19_9_clip1leaf.obj.mtl

vn 0.026422 0.998334 -0.051298
v 0.021754 0.268162 0.049160
vn -0.253461 0.710945 -0.655984
v 0.022370 0.268538 0.050416
vn -0.354840 0.272357 -0.894377
v 0.022407 0.269931 0.050817
vn 0.671236 -0.490118 -0.556082
v 0.019859 0.270390 0.050906
vn 0.948392 -0.310850 0.062646
v 0.019411 0.270100 0.049905
vn 0.779736 0.483546 0.397738
v 0.019506 0.269034 0.049529
vn 0.343904 0.935835 0.077096
v 0.020049 0.268258 0.050153
vn -0.032161 0.701071 -0.712366
v 0.020498 0.268548 0.051154
vn 0.057676 0.116204 -0.991549
v 0.020403 0.269614 0.051530
vn 0.859244 0.236739 -0.453492
v 0.018996 0.269060 0.051036
vn 0.086089 -0.986700 -0.137887
v 0.038267 0.267968 0.080386
vn 0.149920 -0.980047 -0.130506
v 0.030486 0.269233 0.066476
vn 0.105644 -0.926309 -0.361650
v 0.021426 0.269905 0.049753
vn 0.043440 -0.847030 -0.529767
v 0.010569 0.280371 0.036078
vn 0.085247 -0.919116 -0.384654
v 0.000773 0.286161 0.021334
vn 0.271755 -0.945180 -0.181065
v 0.026097 0.262956 0.108657
vn 0.283974 -0.945732 -0.157956
v 0.015302 0.264161 0.085528
vn 0.215237 -0.890962 -0.399826
v 0.003105 0.264405 0.057665
vn 0.169242 -0.849683 -0.499396
v -0.016004 0.278664 0.035529
vn 0.269450 -0.862829 -0.427694
v -0.031546 0.286250 0.011303
vn 0.698214 -0.619030 -0.359581
v 0.013798 0.255700 0.121872
vn 0.607404 -0.727767 -0.318458
v 0.001067 0.255668 0.096485
vn 0.383224 -0.789403 -0.479564
v -0.013130 0.254491 0.065827
vn 0.234025 -0.818480 -0.524712
v -0.037700 0.266843 0.042347
vn 0.242185 -0.872558 -0.424252
v -0.057010 0.272784 0.016150
vn 0.600360 -0.667763 -0.440070
v 0.008708 0.236588 0.124470
vn 0.560883 -0.721964 -0.405190
v -0.008093 0.239268 0.101680
vn 0.400054 -0.714321 -0.574197
v -0.027143 0.241497 0.073782
vn 0.328710 -0.634328 -0.699698
v -0.056154 0.254924 0.056772
vn 0.464777 -0.614495 -0.637478
v -0.079991 0.262973 0.035217
vn 0.401684 -0.873540 -0.274916
v -0.014361 0.223889 0.135325
vn 0.542677 -0.793812 -0.274526
v -0.026572 0.225192 0.109733
vn 0.583099 -0.582768 -0.566019
v -0.039902 0.225954 0.078694
vn 0.632077 -0.304910 -0.712397
v -0.066591 0.235967 0.056475
vn 0.784243 -0.174414 -0.595435
v -0.086620 0.241560 0.030767
vn 0.660186 -0.718308 -0.219519
v -0.031702 0.214030 0.143412
vn 0.757824 -0.620794 -0.200795
v -0.040795 0.211967 0.116504
vn 0.755210 -0.459069 -0.467882
v -0.050253 0.208863 0.084100
vn 0.743213 -0.271632 -0.611433
v -0.075198 0.213614 0.058217
vn 0.849270 -0.172369 -0.499028
v -0.092558 0.214699 0.029970
vn 0.935307 -0.269562 -0.229209
v -0.043878 0.194960 0.148304
vn 0.944388 -0.251821 -0.211468
v -0.050524 0.192725 0.120867
vn 0.864770 -0.251576 -0.434605
v -0.056969 0.189659 0.087922
vn 0.774529 -0.272753 -0.570710
v -0.080293 0.191581 0.060493
vn 0.815673 -0.335210 -0.471499
v -0.095439 0.191200 0.031191
vn 0.953183 0.097980 -0.286079
v -0.043252 0.165817 0.147425
vn 0.955512 0.015511 -0.294544
v -0.052200 0.167575 0.120321
vn 0.848073 -0.123081 -0.515386
v -0.061377 0.169437 0.087594
vn 0.702590 -0.326933 -0.632045
v -0.087354 0.173900 0.062475
vn 0.653274 -0.528565 -0.542081
v -0.105129 0.177084 0.034482
vn 0.913723 0.150104 -0.377596
v -0.039069 0.139256 0.141768
vn 0.912349 0.065511 -0.404139
v -0.051642 0.143902 0.116005
vn 0.781319 -0.059577 -0.621282
v -0.065180 0.149302 0.084658
vn 0.650423 -0.221616 -0.726523
v -0.094693 0.155878 0.063373
vn 0.612363 -0.436417 -0.659205
v -0.116297 0.161771 0.038015
vn 0.875441 0.092263 -0.474437
v -0.044483 0.117941 0.123131
vn 0.864763 -0.016447 -0.501911
v -0.056528 0.123279 0.103992
vn 0.716358 -0.043927 -0.696349
v -0.069788 0.129546 0.080543
vn 0.628957 0.046639 -0.776040
v -0.094893 0.136444 0.066493
vn 0.614967 -0.254120 -0.746484
v -0.114060 0.142898 0.048505
vn 0.706492 0.026745 -0.707216
v -0.075473 0.110284 0.075527
# 61 vertices, 0 vertices normals


usemtl material_0
vt 0.500000 2.900000
vt 0.666667 3.000000
vt 0.500000 3.000000
f 1/1/1 6/2/6 7/3/7
vt 0.333333 2.900000
f 1/1/1 7/3/7 2/4/2
vt 0.333333 3.000000
f 2/4/2 7/3/7 8/5/8
vt 0.166667 2.900000
f 2/4/2 8/5/8 3/6/3
vt 0.166667 3.000000
f 3/6/3 8/5/8 9/7/9
vt 1.000000 3.000000
vt 0.500000 3.100000
vt 0.833333 3.000000
f 4/8/4 10/9/10 5/10/5
f 5/10/5 10/9/10 6/2/6
f 6/2/6 10/9/10 7/3/7
f 7/3/7 10/9/10 8/5/8
f 8/5/8 10/9/10 9/7/9
vt -0.000000 3.000000
f 9/7/9 10/9/10 4/11/4

usemtl material_1
vt 1.000000 1.000000
vt 1.000000 1.100000
vt 0.750000 1.000000
f 11/12/11 16/13/16 12/14/12
vt 0.750000 1.100000
f 12/14/12 16/13/16 17/15/17
vt 0.500000 1.000000
f 12/14/12 17/15/17 13/16/13
vt 0.500000 1.100000
f 13/16/13 17/15/17 18/17/18
vt 0.250000 1.000000
f 13/16/13 18/17/18 14/18/14
vt 0.250000 1.100000
f 14/18/14 18/17/18 19/19/19
vt -0.000000 1.000000
f 14/18/14 19/19/19 15/20/15
vt -0.000000 1.100000
f 15/20/15 19/19/19 20/21/20
vt 1.000000 1.200000
f 16/13/16 21/22/21 17/15/17
vt 0.750000 1.200000
f 17/15/17 21/22/21 22/23/22
f 17/15/17 22/23/22 18/17/18
vt 0.500000 1.200000
f 18/17/18 22/23/22 23/24/23
f 18/17/18 23/24/23 19/19/19
vt 0.250000 1.200000
f 19/19/19 23/24/23 24/25/24
f 19/19/19 24/25/24 20/21/20
vt -0.000000 1.200000
f 20/21/20 24/25/24 25/26/25
vt 1.000000 1.300000
f 21/22/21 26/27/26 22/23/22
vt 0.750000 1.300000
f 22/23/22 26/27/26 27/28/27
f 22/23/22 27/28/27 23/24/23
vt 0.500000 1.300000
f 23/24/23 27/28/27 28/29/28
f 23/24/23 28/29/28 24/25/24
vt 0.250000 1.300000
f 24/25/24 28/29/28 29/30/29
f 24/25/24 29/30/29 25/26/25
vt -0.000000 1.300000
f 25/26/25 29/30/29 30/31/30
vt 1.000000 1.400000
f 26/27/26 31/32/31 27/28/27
vt 0.750000 1.400000
f 27/28/27 31/32/31 32/33/32
f 27/28/27 32/33/32 28/29/28
vt 0.500000 1.400000
f 28/29/28 32/33/32 33/34/33
f 28/29/28 33/34/33 29/30/29
vt 0.250000 1.400000
f 29/30/29 33/34/33 34/35/34
f 29/30/29 34/35/34 30/31/30
vt -0.000000 1.400000
f 30/31/30 34/35/34 35/36/35
vt 1.000000 1.500000
f 31/32/31 36/37/36 32/33/32
vt 0.750000 1.500000
f 32/33/32 36/37/36 37/38/37
f 32/33/32 37/38/37 33/34/33
vt 0.500000 1.500000
f 33/34/33 37/38/37 38/39/38
f 33/34/33 38/39/38 34/35/34
vt 0.250000 1.500000
f 34/35/34 38/39/38 39/40/39
f 34/35/34 39/40/39 35/36/35
vt -0.000000 1.500000
f 35/36/35 39/40/39 40/41/40
vt 1.000000 1.600000
f 36/37/36 41/42/41 37/38/37
vt 0.750000 1.600000
f 37/38/37 41/42/41 42/43/42
f 37/38/37 42/43/42 38/39/38
vt 0.500000 1.600000
f 38/39/38 42/43/42 43/44/43
f 38/39/38 43/44/43 39/40/39
vt 0.250000 1.600000
f 39/40/39 43/44/43 44/45/44
f 39/40/39 44/45/44 40/41/40
vt -0.000000 1.600000
f 40/41/40 44/45/44 45/46/45
vt 1.000000 1.700000
f 41/42/41 46/47/46 42/43/42
vt 0.750000 1.700000
f 42/43/42 46/47/46 47/48/47
f 42/43/42 47/48/47 43/44/43
vt 0.500000 1.700000
f 43/44/43 47/48/47 48/49/48
f 43/44/43 48/49/48 44/45/44
vt 0.250000 1.700000
f 44/45/44 48/49/48 49/50/49
f 44/45/44 49/50/49 45/46/45
vt -0.000000 1.700000
f 45/46/45 49/50/49 50/51/50
vt 1.000000 1.800000
f 46/47/46 51/52/51 47/48/47
vt 0.750000 1.800000
f 47/48/47 51/52/51 52/53/52
f 47/48/47 52/53/52 48/49/48
vt 0.500000 1.800000
f 48/49/48 52/53/52 53/54/53
f 48/49/48 53/54/53 49/50/49
vt 0.250000 1.800000
f 49/50/49 53/54/53 54/55/54
f 49/50/49 54/55/54 50/51/50
vt -0.000000 1.800000
f 50/51/50 54/55/54 55/56/55
vt 1.000000 1.900000
f 51/52/51 56/57/56 52/53/52
vt 0.750000 1.900000
f 52/53/52 56/57/56 57/58/57
f 52/53/52 57/58/57 53/54/53
vt 0.500000 1.900000
f 53/54/53 57/58/57 58/59/58
f 53/54/53 58/59/58 54/55/54
vt 0.250000 1.900000
f 54/55/54 58/59/58 59/60/59
f 54/55/54 59/60/59 55/56/55
vt -0.000000 1.900000
f 55/56/55 59/60/59 60/61/60
vt 0.500000 2.000000
f 56/57/56 61/62/61 57/58/57
f 57/58/57 61/62/61 58/59/58
f 58/59/58 61/62/61 59/60/59
f 59/60/59 61/62/61 60/61/60
# 87 faces, 62 coords texture

# End of File
